<?xml version="1.0" encoding="utf-8"?>
<!-- Generator: Adobe Illustrator 23.0.0, SVG Export Plug-In . SVG Version: 6.00 Build 0)  -->
<svg version="1.1" id="Layer_1" xmlns="http://www.w3.org/2000/svg" xmlns:xlink="http://www.w3.org/1999/xlink" x="0px" y="0px"
	 viewBox="0 0 280.1 291.6" style="enable-background:new 0 0 280.1 291.6;" xml:space="preserve">
<style type="text/css">
	.st0{fill:#876BD1;stroke:#876BD1;stroke-width:2;stroke-miterlimit:10;}
	.st1{fill:#876BD1;}
	.st2{fill:#FFFFFF;}
</style>
<path class="st0" d="M159.4,25.8c0-10.7-8.7-19.3-19.3-19.3c-10.7,0-19.3,8.6-19.3,19.3c0,7.2,4,13.4,9.8,16.7v21.9h19V42.5
	C155.4,39.2,159.4,33,159.4,25.8z M113,183.1l-86.1,86.1c-4,4-4,10.4,0,14.4c4,3.9,10.4,3.9,14.4,0l86.1-86.1c4-4,4-10.4,0-14.4
	C123.4,179.1,117,179.1,113,183.1z M253.2,269.2l-86.1-86.1c-4-4-10.4-4-14.4,0s-4,10.4,0,14.4l86.1,86.1c4,3.9,10.4,3.9,14.4,0
	C257.2,279.6,257.2,273.2,253.2,269.2z"/>
<path class="st0" d="M140.1,54.7C204,54.7,256,108,256,171.5s-52,115.2-115.9,115.2S24.2,234.3,24.2,170.9
	C24.2,107.4,76.2,54.7,140.1,54.7z"/>
<path class="st1" d="M248.7,51.9l-28.4-22.2c-7.8-6.1-19.1-4.7-25.3,3.1l-15,19.3c23.4,8,43.6,22.8,58.6,42l13.2-16.9
	C258,69.3,256.6,58,248.7,51.9z M59.4,29.4L30.9,51.8C23,58,21.6,69.4,27.8,77.3l13.3,17c15-19.3,35.4-34.2,59-42.2L84.9,32.5
	C78.7,24.6,67.3,23.3,59.4,29.4z"/>
<path class="st2" d="M140.1,82.1c48.8,0,88.5,40.7,88.5,89.2s-39.8,88-88.5,88s-88.5-40-88.5-88.5S91.3,82.1,140.1,82.1z"/>
<path d="M188.4,161.1h-38.7v-48.3c0-5.3-4.3-9.7-9.7-9.7c-5.3,0-9.7,4.3-9.7,9.7v57.9c0,5.3,4.3,9.7,9.7,9.7h48.3
	c5.3,0,9.6-4.3,9.6-9.7S193.7,161.1,188.4,161.1z"/>
</svg>
