<?xml version="1.0" encoding="utf-8"?>
<!-- Generator: Adobe Illustrator 23.0.0, SVG Export Plug-In . SVG Version: 6.00 Build 0)  -->
<svg version="1.1" id="Laag_1" xmlns="http://www.w3.org/2000/svg" xmlns:xlink="http://www.w3.org/1999/xlink" x="0px" y="0px"
	 viewBox="0 0 2048 1792" style="enable-background:new 0 0 2048 1792;" xml:space="preserve">
<style type="text/css">
	.st0{fill:#648ED0;}
</style>
<path class="st0" d="M256,1024h1728c17.3,0,32.3,6.3,45,19s19,27.7,19,45v448h-256v-256H256v256H0V320c0-17.3,6.3-32.3,19-45
	s27.7-19,45-19h128c17.3,0,32.3,6.3,45,19s19,27.7,19,45V1024z M832,704c0-70.7-25-131-75-181s-110.3-75-181-75s-131,25-181,75
	s-75,110.3-75,181s25,131,75,181s110.3,75,181,75s131-25,181-75S832,774.7,832,704z M2048,960v-64c0-106-37.5-196.5-112.5-271.5
	S1770,512,1664,512H960c-17.3,0-32.3,6.3-45,19s-19,27.7-19,45v384H2048z"/>
</svg>
