<?xml version="1.0" encoding="utf-8"?>
<!-- Generator: Adobe Illustrator 23.0.0, SVG Export Plug-In . SVG Version: 6.00 Build 0)  -->
<svg version="1.1" id="Layer_1" xmlns="http://www.w3.org/2000/svg" xmlns:xlink="http://www.w3.org/1999/xlink" x="0px" y="0px"
	 viewBox="0 0 473.9 473.9" style="enable-background:new 0 0 473.9 473.9;" xml:space="preserve">
<style type="text/css">
	.st0{fill:#CA842A;}
	.st1{fill:#876BD1;stroke:#876BD1;stroke-width:2;stroke-miterlimit:10;}
	.st2{fill:#FFC50B;}
	.st3{fill:#B8972F;}
	.st4{fill:#C4A12E;}
	.st5{opacity:0.4;}
	.st6{fill:#F6E568;}
	.st7{fill:#A8213B;}
	.st8{fill:#951D38;}
	.st9{fill:#C0355A;}
	.st10{fill:#B72D4C;}
</style>
<g>
	<polygon class="st0" points="193.2,188.9 67.5,167.4 162.1,235.1 	"/>
	<polygon class="st0" points="278.6,188.9 404.4,167.4 309.8,235.1 	"/>
</g>
<path class="st1" d="M404.3,167.4c0,0-88.5,52.1-94.6,46c-6.8-6.8-65.9-115.1-74.4-115.1c-8.5,0-66.4,108.4-73.2,115.1
	c-6.1,6.1-94.6-46-94.6-46C55.6,173.9,130,358.6,130,358.6c0,14.8,12,26.8,26.8,26.8h78.5H315c14.8,0,26.8-12,26.8-26.8
	C341.8,358.6,416.2,173.9,404.3,167.4z"/>
<circle class="st2" cx="234.6" cy="98.3" r="25.7"/>
<path class="st3" d="M342.1,358.6c0,14.8-12,26.8-26.8,26.8H156.8c-14.8,0-26.8-12-26.8-26.8c0,0,61.7-3.7,105.9-3.7
	C280.1,355,342.1,358.6,342.1,358.6z"/>
<path class="st4" d="M235.2,385.4h-78.5c-14.8,0-26.8-12-26.8-26.8c0,0,61.7-3.7,105.9-3.7L235.2,385.4z"/>
<g class="st5">
	<path class="st6" d="M213.8,103.4c-4.5-4.5,0.4-17,5-21.5c4.5-4.5,15.4-8.8,20-4.3C243.2,82,218.3,107.9,213.8,103.4z"/>
</g>
<g>
	<circle class="st2" cx="404.7" cy="168.7" r="16.9"/>
	<path class="st2" d="M391.1,172c-3-3,0.3-11.2,3.3-14.2c3-3,10.2-5.8,13.1-2.8C410.4,158,394,175,391.1,172z"/>
	<circle class="st2" cx="67.2" cy="168.7" r="16.9"/>
</g>
<g class="st5">
	<path class="st6" d="M53.5,172c-3-3,0.3-11.2,3.3-14.2c3-3,10.2-5.8,13.1-2.8C72.8,158,56.4,175,53.5,172z"/>
</g>
<polygon class="st7" points="234.9,210.3 205.4,262.5 234.9,314.7 264.4,262.5 "/>
<polygon class="st8" points="205.4,262.5 234.9,314.7 264.4,262.5 "/>
<polygon class="st9" points="234.9,210.3 205.4,262.5 234.9,314.7 "/>
<polygon class="st10" points="234.9,262.5 205.4,262.5 234.9,314.7 "/>
</svg>
