<?xml version="1.0" encoding="utf-8"?>
<!-- Generator: Adobe Illustrator 23.0.0, SVG Export Plug-In . SVG Version: 6.00 Build 0)  -->
<svg version="1.1" id="Capa_1" xmlns="http://www.w3.org/2000/svg" xmlns:xlink="http://www.w3.org/1999/xlink" x="0px" y="0px"
	 viewBox="0 0 270 270" style="enable-background:new 0 0 270 270;" xml:space="preserve">
<style type="text/css">
	.st0{fill:#876BD1;stroke:#876BD1;stroke-width:0.25;stroke-miterlimit:10;}
</style>
<g>
	<g>
		<path class="st0" d="M256.9,137.1c-0.8,0.1-1.6,0.1-2.4,0.2C255.4,137.5,256.2,137.5,256.9,137.1z"/>
		<path class="st0" d="M267.7,99.2c-29.3-26.9-9-52.5,2.3-59.8c-74.3,29.4-69.6,105.2-81.8,113.2c-11.7,7.8-22.7-3-28.1-13.2
			c3.4,13.2-10.4,21.9-20.4,7.2c2.7,20.1,9.5,33.4-18.3,26c-30.6-8.2-82.1-33.3-121.3-1.6c22.9-1.7,47.8,16.5,46.6,36.8
			c16.1-12.2,41.2,3.7,40.9,22.8C95,210,128,205.3,143,224.2c-5.5-33.5,35.7-28,44.4-6.7c-10.8-45.3,22-46.9,40.5-36.7
			c-6.7-29,4.3-41,26.7-43.6C245.4,134.9,231.8,100.5,267.7,99.2z"/>
	</g>
</g>
</svg>
