<?xml version="1.0" encoding="utf-8"?>
<!-- Generator: Adobe Illustrator 23.0.0, SVG Export Plug-In . SVG Version: 6.00 Build 0)  -->
<svg version="1.1" id="Layer_1" xmlns="http://www.w3.org/2000/svg" xmlns:xlink="http://www.w3.org/1999/xlink" x="0px" y="0px"
	 viewBox="0 0 512 512" style="enable-background:new 0 0 512 512;" xml:space="preserve">
<style type="text/css">
	.st0{fill:#876BD1;}
	.st1{fill:#282828;}
	.st2{fill:#161616;}
	.st3{fill:#8C8C8C;}
	.st4{fill:#777777;}
	.st5{fill:#5B5B5B;}
	.st6{fill:#18A000;}
	.st7{fill:#E03A00;}
</style>
<circle class="st0" cx="256" cy="256" r="256"/>
<path class="st1" d="M319.1,97.8h-91.5V83.6c0-7.9-6.4-14.2-14.2-14.2s-14.2,6.4-14.2,14.2v14.2h-6.2c-12.3,0-22.3,10-22.3,22.3
	v296.8c0,12.3,10,22.3,22.3,22.3h126.1c12.3,0,22.3-10,22.3-22.3V120.1C341.3,107.8,331.4,97.8,319.1,97.8z"/>
<path class="st2" d="M319.1,97.8h-63.6v341.3h63.6c12.3,0,22.3-10,22.3-22.3V120.1C341.3,107.8,331.4,97.8,319.1,97.8z"/>
<rect x="199.1" y="126.3" class="st3" width="113.8" height="85.3"/>
<rect x="255.4" y="126.3" class="st4" width="57.5" height="85.3"/>
<g>
	<path class="st3" d="M213.3,321.9L213.3,321.9c-7.9,0-14.2-6.4-14.2-14.2l0,0c0-7.9,6.4-14.2,14.2-14.2l0,0
		c7.9,0,14.2,6.4,14.2,14.2l0,0C227.6,315.6,221.2,321.9,213.3,321.9z"/>
	<path class="st3" d="M256,321.9L256,321.9c-7.9,0-14.2-6.4-14.2-14.2l0,0c0-7.9,6.4-14.2,14.2-14.2l0,0c7.9,0,14.2,6.4,14.2,14.2
		l0,0C270.2,315.6,263.9,321.9,256,321.9z"/>
</g>
<path class="st5" d="M298.7,321.9L298.7,321.9c-7.9,0-14.2-6.4-14.2-14.2l0,0c0-7.9,6.4-14.2,14.2-14.2l0,0
	c7.9,0,14.2,6.4,14.2,14.2l0,0C312.9,315.6,306.5,321.9,298.7,321.9z"/>
<g>
	<path class="st3" d="M213.3,364.6L213.3,364.6c-7.9,0-14.2-6.4-14.2-14.2l0,0c0-7.9,6.4-14.2,14.2-14.2l0,0
		c7.9,0,14.2,6.4,14.2,14.2l0,0C227.6,358.2,221.2,364.6,213.3,364.6z"/>
	<path class="st3" d="M256,364.6L256,364.6c-7.9,0-14.2-6.4-14.2-14.2l0,0c0-7.9,6.4-14.2,14.2-14.2l0,0c7.9,0,14.2,6.4,14.2,14.2
		l0,0C270.2,358.2,263.9,364.6,256,364.6z"/>
</g>
<path class="st5" d="M298.7,364.6L298.7,364.6c-7.9,0-14.2-6.4-14.2-14.2l0,0c0-7.9,6.4-14.2,14.2-14.2l0,0
	c7.9,0,14.2,6.4,14.2,14.2l0,0C312.9,358.2,306.5,364.6,298.7,364.6z"/>
<g>
	<path class="st3" d="M213.3,407.3L213.3,407.3c-7.9,0-14.2-6.4-14.2-14.2l0,0c0-7.9,6.4-14.2,14.2-14.2l0,0
		c7.9,0,14.2,6.4,14.2,14.2l0,0C227.6,400.9,221.2,407.3,213.3,407.3z"/>
	<path class="st3" d="M256,407.3L256,407.3c-7.9,0-14.2-6.4-14.2-14.2l0,0c0-7.9,6.4-14.2,14.2-14.2l0,0c7.9,0,14.2,6.4,14.2,14.2
		l0,0C270.2,400.9,263.9,407.3,256,407.3z"/>
</g>
<g>
	<path class="st5" d="M256,293.5c-0.2,0-0.4,0-0.6,0v28.4c0.2,0,0.4,0,0.6,0c7.9,0,14.2-6.4,14.2-14.2S263.9,293.5,256,293.5z"/>
	<path class="st5" d="M256,336.2c-0.2,0-0.4,0-0.6,0v28.4c0.2,0,0.4,0,0.6,0c7.9,0,14.2-6.4,14.2-14.2S263.9,336.2,256,336.2z"/>
	<path class="st5" d="M256,378.8c-0.2,0-0.4,0-0.6,0v28.4c0.2,0,0.4,0,0.6,0c7.9,0,14.2-6.4,14.2-14.2S263.9,378.8,256,378.8z"/>
	<path class="st5" d="M298.7,407.3L298.7,407.3c-7.9,0-14.2-6.4-14.2-14.2l0,0c0-7.9,6.4-14.2,14.2-14.2l0,0
		c7.9,0,14.2,6.4,14.2,14.2l0,0C312.9,400.9,306.5,407.3,298.7,407.3z"/>
</g>
<path class="st6" d="M236.6,268.5h-29.7c-4.3,0-7.8-3.5-7.8-7.8v-3.4c0-4.3,3.5-7.8,7.8-7.8h29.7c4.3,0,7.8,3.5,7.8,7.8v3.4
	C244.3,265,240.9,268.5,236.6,268.5z"/>
<path class="st7" d="M305.1,268.5h-29.7c-4.3,0-7.8-3.5-7.8-7.8v-3.4c0-4.3,3.5-7.8,7.8-7.8h29.7c4.3,0,7.8,3.5,7.8,7.8v3.4
	C312.9,265,309.4,268.5,305.1,268.5z"/>
</svg>
