<?xml version="1.0" encoding="utf-8"?>
<!-- Generator: Adobe Illustrator 23.0.0, SVG Export Plug-In . SVG Version: 6.00 Build 0)  -->
<svg version="1.1" id="Capa_1" xmlns="http://www.w3.org/2000/svg" xmlns:xlink="http://www.w3.org/1999/xlink" x="0px" y="0px"
	 viewBox="0 0 169.4 169.4" style="enable-background:new 0 0 169.4 169.4;" xml:space="preserve">
<style type="text/css">
	.st0{fill:#876BD1;stroke:#876BD1;stroke-width:0.25;stroke-miterlimit:10;}
	.st1{fill:#876BD1;stroke:#876BD1;stroke-width:2;stroke-miterlimit:10;}
	.st2{stroke:#876BD1;stroke-width:2;stroke-miterlimit:10;}
	.st3{fill:#FFFFFF;}
</style>
<circle class="st0" cx="146.9" cy="43.3" r="18.4"/>
<circle class="st0" cx="22.8" cy="43" r="18.4"/>
<ellipse class="st1" cx="84.7" cy="89.2" rx="82.5" ry="67.4"/>
<path class="st2" d="M24.4,135.2c0,0,16.3-8.2,18.4-22.3s-9.7-28.3-15.9-30.2c-6.4-1.8-23.1-7.2-24.6,2.9
	C0.8,95.6,5.1,122.2,24.4,135.2z"/>
<path class="st2" d="M145,135.2c0,0-16.3-8.2-18.4-22.3c-2.1-14.1,9.7-28.3,16-30.2c6.3-1.8,23.1-7.2,24.5,2.8
	C168.6,95.6,164.3,122.2,145,135.2z"/>
<path class="st2" d="M101.5,116.7c0,3.4-7.5,13.7-16.8,13.7s-16.8-10.3-16.8-13.7c0-3.4,7.5-6.2,16.8-6.2S101.5,113.3,101.5,116.7z"
	/>
<circle class="st3" cx="29.7" cy="106.5" r="7"/>
<circle class="st3" cx="142.8" cy="106.5" r="7"/>
</svg>
