<?xml version="1.0" encoding="utf-8"?>
<!-- Generator: Adobe Illustrator 23.0.0, SVG Export Plug-In . SVG Version: 6.00 Build 0)  -->
<svg version="1.1" id="Layer_1" xmlns="http://www.w3.org/2000/svg" xmlns:xlink="http://www.w3.org/1999/xlink" x="0px" y="0px"
	 viewBox="0 0 533 512" style="enable-background:new 0 0 533 512;" xml:space="preserve">
<style type="text/css">
	.st0{fill:none;stroke:#876BD1;stroke-width:8;stroke-miterlimit:10;}
	.st1{fill:#876BD1;}
	.st2{fill:#CF4529;}
	.st3{fill:#E55639;}
</style>
<path class="st0" d="M512.7,393.8c19,37.9-21.4,77.1-58.4,58.7L431,440.8c-52.8,15.1-107.9,22.7-164,22.7h-0.8
	c-55.5-0.1-110.5-7.7-164-22.5l-22.5,11.5c-37.1,18.6-77.3-20.8-58.6-58.4L32,372.3c-28-73.6-28-157,0-231.5L21.3,120
	c-19-37.9,21.5-77.1,58.4-58.7L103,73.1c52.6-14.8,107.8-22.4,163.3-22.5c55.6,0,111.5,7.4,165.4,22.4l22.5-11.5
	c37.3-18.8,77.3,20.9,58.6,58.4L502,141.6c28,73.6,28,157,0,231.5L512.7,393.8z"/>
<path class="st1" d="M512.7,393.8c19,37.9-21.4,77.1-58.4,58.7L431,440.8c-52.8,15.1-107.9,22.7-164,22.7h-0.8v-413
	c55.6,0,111.5,7.4,165.4,22.4l22.5-11.5c37.3-18.8,77.3,20.9,58.6,58.4L502,141.6c28,73.6,28,157,0,231.5L512.7,393.8z"/>
<path class="st2" d="M267.3,219.6c0,0,12.8-45.6,53.2-45.6c27.3,0,47.2,19.6,52,45c0.7,3.9,1.1,8,1.1,12.1c0,39-35.9,62.3-90,107
	c-9.5,7.9-23.3,7.9-32.8,0c-54.1-44.7-90-68-90-107c0-31,21.7-57.1,53.2-57.1C254.5,174,267.3,219.6,267.3,219.6z"/>
<path class="st3" d="M214.1,174c-31.5,0-53.2,26.1-53.2,57.1c0,39,35.9,62.3,90,107c4.8,3.9,10.6,5.9,16.4,5.9V219.6
	C267.3,219.6,254.5,174,214.1,174z"/>
</svg>
