<?xml version="1.0" encoding="utf-8"?>
<!-- Generator: Adobe Illustrator 23.0.0, SVG Export Plug-In . SVG Version: 6.00 Build 0)  -->
<svg version="1.1" id="Layer_1" xmlns="http://www.w3.org/2000/svg" xmlns:xlink="http://www.w3.org/1999/xlink" x="0px" y="0px"
	 viewBox="0 0 528 528" style="enable-background:new 0 0 528 528;" xml:space="preserve">
<style type="text/css">
	.st0{fill:#876BD1;stroke:#876BD1;stroke-width:2;stroke-miterlimit:10;}
	.st1{fill:#FFFFFF;}
	.st2{fill:#A81004;}
	.st3{fill:#F95428;}
	.st4{fill:#FFFFFF;stroke:#876BD1;stroke-width:3;stroke-miterlimit:10;}
</style>
<circle class="st0" cx="261.7" cy="264.4" r="253.7"/>
<path class="st0" d="M128.4,397.7C37.1,306.4,30,162.9,106.8,63.4C98.3,70,90.1,77.2,82.3,85c-99.1,99.1-99.1,259.7,0,358.8
	s259.7,99.1,358.8,0c7.8-7.8,15-16,21.6-24.5C363.2,496.1,219.7,488.9,128.4,397.7z"/>
<g>
	<path class="st1" d="M368.7,305.9L368.7,305.9c-23.2,0-44.2-11.9-56.2-31.9c-2.7-4.5-1.2-10.2,3.2-12.9c4.5-2.7,10.2-1.2,12.9,3.2
		c8.5,14.2,23.5,22.7,40,22.7c16.6,0,31.5-8.5,40-22.7c2.7-4.5,8.4-5.9,12.9-3.2c4.5,2.7,5.9,8.4,3.2,12.9
		C413,294,392,305.9,368.7,305.9z"/>
	<path class="st1" d="M154.7,305.9c-23.2,0-44.2-11.9-56.2-31.9c-2.7-4.5-1.2-10.2,3.2-12.9c4.5-2.7,10.2-1.2,12.9,3.2
		c8.5,14.2,23.5,22.7,40,22.7c16.6,0,31.5-8.5,40-22.7c2.7-4.5,8.4-5.9,12.9-3.2c4.5,2.7,5.9,8.4,3.2,12.9
		C198.9,294,177.9,305.9,154.7,305.9z"/>
</g>
<path class="st2" d="M383.4,390.4c-0.1,0.4-0.3,0.8-0.4,1.2c-0.1,0.3-0.2,0.5-0.3,0.8c-4.1,11.5-12.7,20.2-23.1,24.9l-0.1-0.1
	c-0.4-0.8-0.9-1.6-1.3-2.3c-11.5-19.4-32.7-32.4-57-32.4c-14.8,0-28.5,4.9-39.5,13.1c-11-8.2-24.7-13.1-39.5-13.1
	c-24.2,0-45.4,13-57,32.4c-0.5,0.8-0.9,1.5-1.3,2.3l-0.1,0.1c-10.4-4.6-19-13.4-23.1-24.9c-0.1-0.3-0.2-0.5-0.3-0.8
	c-0.1-0.4-0.3-0.8-0.4-1.2c4.5-13.8,15.9-25.1,31.3-28.6c59.5-13.7,121.3-13.7,180.7,0C367.5,365.3,378.9,376.6,383.4,390.4z"/>
<path class="st1" d="M352.1,334.8c24.8,5.7,39.2,31.5,31.3,55.6c-4.5-13.8-15.9-25.1-31.3-28.6c-59.5-13.7-121.3-13.7-180.7,0
	c-15.4,3.5-26.8,14.8-31.3,28.6c-7.9-24,6.5-49.9,31.3-55.6C230.8,321.1,292.6,321.1,352.1,334.8z"/>
<path class="st3" d="M358.2,414.8c0.5,0.8,0.9,1.5,1.3,2.3l0.1,0.1l0,0c-8.3,3.7-17.7,4.8-27.1,2.6c-46.6-10.7-95-10.7-141.5,0
	c-9.4,2.1-18.8,1-27.1-2.6l0,0l0.1-0.1c0.4-0.8,0.9-1.6,1.3-2.3c11.5-19.4,32.7-32.4,57-32.4c14.8,0,28.5,4.9,39.5,13.1
	c11-8.2,24.7-13.1,39.5-13.1C325.5,382.3,346.6,395.3,358.2,414.8z"/>
<g>
	<path class="st4" d="M366.5,202.3H314c-3.6,0-7-2.1-8.5-5.4c-1.5-3.3-1-7.2,1.3-10l39.7-47.5H314c-5.2,0-9.4-4.2-9.4-9.4
		c0-5.2,4.2-9.4,9.4-9.4h52.5c3.6,0,7,2.1,8.5,5.4c1.5,3.3,1,7.2-1.3,10L334,183.5h32.5c5.2,0,9.4,4.2,9.4,9.4
		S371.7,202.3,366.5,202.3z"/>
	<path class="st4" d="M510.6,164.6H397.2c-3.6,0-7-2.1-8.5-5.4c-1.5-3.3-1-7.2,1.3-10L490.5,28.7h-93.3c-5.2,0-9.4-4.2-9.4-9.4
		s4.2-9.4,9.4-9.4h113.4c3.6,0,7,2.1,8.5,5.4s1,7.2-1.3,10L417.3,145.8h93.3c5.2,0,9.4,4.2,9.4,9.4
		C520,160.4,515.8,164.6,510.6,164.6z"/>
</g>
</svg>
